<svg xmlns="http://www.w3.org/2000/svg" viewBox="0 0 114.59 124"><defs><style>.cls-1{fill:#ffffff;}.cls-2{fill:none;stroke:#ffffff;stroke-miterlimit:10;stroke-width:4px;}</style></defs><title>Asset 1</title><g id="Layer_2" data-name="Layer 2"><g id="Layer_1-2" data-name="Layer 1"><polygon class="cls-1" points="34.48 11.52 7.19 11.52 39.91 101.82 43.98 113.98 69.35 113.96 73.72 101.45 66.98 101.28 34.48 11.52"/><polygon class="cls-1" points="74.3 99.41 71.5 99.4 101.58 11.48 104.37 11.48 74.3 99.41"/><polygon class="cls-1" points="72.78 113.95 71.77 113.95 107.17 11.5 108.11 11.44 72.78 113.95"/><path class="cls-1" d="M74.94,51.91l-.75,2.21,5,1.69a.52.52,0,0,0,.74-.37l.76-2.23-5-1.68A.53.53,0,0,0,74.94,51.91Z"/><path class="cls-1" d="M70.24,65.89l-.75,2.21,5,1.68a.51.51,0,0,0,.74-.36L76,67.19l-5-1.68A.53.53,0,0,0,70.24,65.89Z"/><path class="cls-1" d="M79.64,37.93l-.74,2.22,5,1.68a.52.52,0,0,0,.74-.37l.75-2.23-5-1.67A.52.52,0,0,0,79.64,37.93Z"/><path class="cls-1" d="M73.64,11.49,57.49,64.57,69.64,99.41l29.3-87.89Zm4.2,54.78L76,71.83a1.29,1.29,0,0,1-1.85.92l-5.56-1.87A1.3,1.3,0,0,1,67.63,69l1.87-5.54a1.3,1.3,0,0,1,1.86-.93l5.56,1.87A1.29,1.29,0,0,1,77.84,66.27Zm1-3.1-6.94-2.33-.19.55-1.39-.46,1.12-3.34,8.33,2.8Zm3.66-10.88-1.87,5.56a1.29,1.29,0,0,1-1.85.92L73.26,56.9A1.31,1.31,0,0,1,72.33,55L74.2,49.5a1.3,1.3,0,0,1,1.86-.93l5.56,1.87A1.29,1.29,0,0,1,82.54,52.29Zm1-3.1-6.94-2.33-.19.55L75.06,47l1.13-3.34,8.33,2.81Zm3.66-10.87-1.87,5.55a1.29,1.29,0,0,1-1.85.92L78,42.92A1.29,1.29,0,0,1,77,41.07l1.86-5.55a1.3,1.3,0,0,1,1.86-.93l5.56,1.87A1.3,1.3,0,0,1,87.24,38.32Zm1-3.11-6.94-2.33-.19.55L79.77,33l1.12-3.34,8.33,2.81Zm1.51-4.49-6.94-2.33-.19.55-1.38-.46,1.12-3.34L90.73,28Zm1.79-5.32a1.29,1.29,0,0,1-1.85.92l-5.56-1.87a1.29,1.29,0,0,1-.92-1.85l1.86-5.55A1.31,1.31,0,0,1,87,16.12L92.53,18a1.3,1.3,0,0,1,.92,1.86Z"/><path class="cls-1" d="M85.85,19.46l-.74,2.22,5,1.68a.52.52,0,0,0,.74-.37l.75-2.23-5-1.67A.52.52,0,0,0,85.85,19.46Z"/><rect class="cls-2" x="2" y="2" width="110.59" height="120" rx="9.18"/></g></g></svg>